<?xml version="1.0" encoding="UTF-8" standalone="no"?>
<!-- Created with Inkscape (http://www.inkscape.org/) -->

<svg
   xmlns:dc="http://purl.org/dc/elements/1.1/"
   xmlns:cc="http://creativecommons.org/ns#"
   xmlns:rdf="http://www.w3.org/1999/02/22-rdf-syntax-ns#"
   xmlns:svg="http://www.w3.org/2000/svg"
   xmlns="http://www.w3.org/2000/svg"
   xmlns:xlink="http://www.w3.org/1999/xlink"
   xmlns:sodipodi="http://sodipodi.sourceforge.net/DTD/sodipodi-0.dtd"
   xmlns:inkscape="http://www.inkscape.org/namespaces/inkscape"
   width="256"
   height="500"
   viewBox="0 0 67.733332 132.29167"
   version="1.1"
   id="svg8"
   inkscape:version="0.92.2 (5c3e80d, 2017-08-06)"
   sodipodi:docname="arizona.svg">
  <defs
     id="defs2">
    <linearGradient
       inkscape:collect="always"
       id="linearGradient890">
      <stop
         style="stop-color:#3b8620;stop-opacity:1;"
         offset="0"
         id="stop886" />
      <stop
         style="stop-color:#58c730;stop-opacity:1"
         offset="1"
         id="stop888" />
    </linearGradient>
    <linearGradient
       inkscape:collect="always"
       id="linearGradient6195">
      <stop
         style="stop-color:#896722;stop-opacity:1;"
         offset="0"
         id="stop6191" />
      <stop
         style="stop-color:#896722;stop-opacity:0;"
         offset="1"
         id="stop6193" />
    </linearGradient>
    <linearGradient
       inkscape:collect="always"
       id="linearGradient6185">
      <stop
         style="stop-color:#be973c;stop-opacity:1"
         offset="0"
         id="stop6181" />
      <stop
         style="stop-color:#8e6a23;stop-opacity:1"
         offset="1"
         id="stop6183" />
    </linearGradient>
    <linearGradient
       inkscape:collect="always"
       id="linearGradient6161">
      <stop
         style="stop-color:#7cc36f;stop-opacity:1;"
         offset="0"
         id="stop6157" />
      <stop
         style="stop-color:#5c7a57;stop-opacity:1"
         offset="1"
         id="stop6159" />
    </linearGradient>
    <linearGradient
       id="linearGradient4604"
       inkscape:collect="always">
      <stop
         id="stop4600"
         offset="0"
         style="stop-color:#277a26;stop-opacity:1" />
      <stop
         id="stop4602"
         offset="1"
         style="stop-color:#7cc36f;stop-opacity:1" />
    </linearGradient>
    <linearGradient
       inkscape:collect="always"
       id="linearGradient4591">
      <stop
         style="stop-color:#23a920;stop-opacity:1"
         offset="0"
         id="stop4587" />
      <stop
         style="stop-color:#c5d7c2;stop-opacity:1"
         offset="1"
         id="stop4589" />
    </linearGradient>
    <linearGradient
       inkscape:collect="always"
       id="linearGradient4521">
      <stop
         style="stop-color:#1e7ceb;stop-opacity:1"
         offset="0"
         id="stop4517" />
      <stop
         id="stop4543"
         offset="0.57906926"
         style="stop-color:#d2f0ee;stop-opacity:1" />
      <stop
         style="stop-color:#d5e395;stop-opacity:1;"
         offset="0.67821044"
         id="stop4547" />
      <stop
         id="stop4541"
         offset="0.78839099"
         style="stop-color:#d9d73c;stop-opacity:1" />
      <stop
         style="stop-color:#be9421;stop-opacity:1;"
         offset="0.91268563"
         id="stop4545" />
      <stop
         style="stop-color:#a45207;stop-opacity:1"
         offset="1"
         id="stop4519" />
    </linearGradient>
    <linearGradient
       inkscape:collect="always"
       xlink:href="#linearGradient4521"
       id="linearGradient4523"
       x1="40.159969"
       y1="169.8488"
       x2="39.970974"
       y2="195.39999"
       gradientUnits="userSpaceOnUse" />
    <linearGradient
       inkscape:collect="always"
       xlink:href="#linearGradient4604"
       id="linearGradient4575"
       x1="5.2200981"
       y1="242.97574"
       x2="8.9458731"
       y2="242.97574"
       gradientUnits="userSpaceOnUse"
       gradientTransform="translate(0.33408691,2.4722431)" />
    <linearGradient
       inkscape:collect="always"
       xlink:href="#linearGradient4604"
       id="linearGradient4577"
       x1="7.9573281"
       y1="245.71965"
       x2="10.621463"
       y2="245.71965"
       gradientUnits="userSpaceOnUse" />
    <linearGradient
       inkscape:collect="always"
       xlink:href="#linearGradient4591"
       id="linearGradient4579"
       x1="9.5979934"
       y1="241.5651"
       x2="13.595559"
       y2="241.5651"
       gradientUnits="userSpaceOnUse"
       gradientTransform="translate(-0.40090429,1.0022607)" />
    <linearGradient
       inkscape:collect="always"
       xlink:href="#linearGradient4604"
       id="linearGradient4598"
       gradientUnits="userSpaceOnUse"
       gradientTransform="translate(-0.40090429,1.0022607)"
       x1="9.5979934"
       y1="241.5651"
       x2="13.595559"
       y2="241.5651" />
    <radialGradient
       inkscape:collect="always"
       xlink:href="#linearGradient6161"
       id="radialGradient6163"
       cx="4.3843627"
       cy="246.06491"
       fx="4.3843627"
       fy="246.06491"
       r="2.0879839"
       gradientTransform="matrix(0.99638171,0,0,0.76778777,0.01683095,56.673916)"
       gradientUnits="userSpaceOnUse" />
    <linearGradient
       inkscape:collect="always"
       xlink:href="#linearGradient6185"
       id="linearGradient6187"
       x1="10.089424"
       y1="243.77994"
       x2="11.659633"
       y2="246.75333"
       gradientUnits="userSpaceOnUse" />
    <linearGradient
       inkscape:collect="always"
       xlink:href="#linearGradient6195"
       id="linearGradient6197"
       x1="10.824416"
       y1="243.74654"
       x2="14.465963"
       y2="246.21878"
       gradientUnits="userSpaceOnUse" />
    <linearGradient
       inkscape:collect="always"
       xlink:href="#linearGradient890"
       id="linearGradient892"
       x1="10.506557"
       y1="259.16449"
       x2="11.363825"
       y2="259.16449"
       gradientUnits="userSpaceOnUse"
       gradientTransform="matrix(7.7034174,0,0,7.7034174,-74.909693,-1746.1546)" />
  </defs>
  <sodipodi:namedview
     id="base"
     pagecolor="#ffffff"
     bordercolor="#666666"
     borderopacity="1.0"
     inkscape:pageopacity="0.0"
     inkscape:pageshadow="2"
     inkscape:zoom="15.839192"
     inkscape:cx="31.437772"
     inkscape:cy="190.76374"
     inkscape:document-units="px"
     inkscape:current-layer="layer1"
     showgrid="true"
     inkscape:window-width="1680"
     inkscape:window-height="987"
     inkscape:window-x="-8"
     inkscape:window-y="-8"
     inkscape:window-maximized="1"
     units="px"
     showguides="true"
     inkscape:guide-bbox="true">
    <inkscape:grid
       type="xygrid"
       id="grid4504"
       spacingx="42.333333"
       spacingy="33.866667"
       visible="true"
       enabled="false"
       snapvisiblegridlinesonly="false" />
    <sodipodi:guide
       position="0,101.6"
       orientation="0,1"
       id="guide4511"
       inkscape:locked="false" />
    <sodipodi:guide
       position="42.333332,101.6"
       orientation="1,0"
       id="guide4513"
       inkscape:locked="false" />
    <sodipodi:guide
       position="20.78869,105.26637"
       orientation="0,1"
       id="guide4549"
       inkscape:locked="false" />
    <sodipodi:guide
       position="4.209495,87.296912"
       orientation="1,0"
       id="guide4620"
       inkscape:locked="false" />
    <sodipodi:guide
       position="5.0447124,79.345641"
       orientation="0,1"
       id="guide4622"
       inkscape:locked="false" />
    <sodipodi:guide
       position="6.8487815,89.936198"
       orientation="0,1"
       id="guide4624"
       inkscape:locked="false" />
  </sodipodi:namedview>
  <metadata
     id="metadata5">
    <rdf:RDF>
      <cc:Work
         rdf:about="">
        <dc:format>image/svg+xml</dc:format>
        <dc:type
           rdf:resource="http://purl.org/dc/dcmitype/StillImage" />
        <dc:title></dc:title>
      </cc:Work>
    </rdf:RDF>
  </metadata>
  <g
     inkscape:label="Layer 1"
     inkscape:groupmode="layer"
     id="layer1"
     transform="translate(0,-164.70832)">
    <rect
       style="fill:url(#linearGradient4523);fill-opacity:1;stroke:none;stroke-width:1;stroke-miterlimit:4;stroke-dasharray:none;stroke-opacity:1"
       id="rect4515"
       width="67.941216"
       height="30.691666"
       x="-0.094494052"
       y="164.70831" />
    <rect
       style="fill:#0b0b0b;fill-opacity:0;stroke:none;stroke-width:1;stroke-miterlimit:4;stroke-dasharray:none;stroke-opacity:1"
       id="rect4525"
       width="67.752235"
       height="18.728735"
       x="-0.094494052"
       y="195.39998" />
    <rect
       style="fill:#0b0b0b;fill-opacity:0;stroke:none;stroke-width:1;stroke-miterlimit:4;stroke-dasharray:none;stroke-opacity:1"
       id="rect4527"
       width="68.130211"
       height="15.497023"
       x="-0.094494052"
       y="214.12871" />
    <rect
       style="fill:#bb7e53;fill-opacity:1;stroke:none;stroke-width:1;stroke-miterlimit:4;stroke-dasharray:none;stroke-opacity:1"
       id="rect4529"
       width="68.130211"
       height="18.728729"
       x="-0.094494052"
       y="195.39998" />
    <rect
       style="fill:#93341c;fill-opacity:1;stroke:none;stroke-width:1;stroke-miterlimit:4;stroke-dasharray:none;stroke-opacity:1"
       id="rect4539"
       width="68.130211"
       height="15.497024"
       x="-0.094494052"
       y="214.12871" />
    <g
       id="g4596"
       transform="translate(2.271791,-29.934187)">
      <g
         id="g4644"
         transform="matrix(0.61319887,0,0,0.61319887,4.2831614,118.75665)"
         inkscape:export-xdpi="87.908211"
         inkscape:export-ydpi="87.908211">
        <path
           style="fill:url(#linearGradient4577);fill-opacity:1;stroke:#216925;stroke-width:0.16500001;stroke-linecap:butt;stroke-linejoin:miter;stroke-miterlimit:4;stroke-dasharray:none;stroke-opacity:1"
           d="m 8.1264881,254.00519 c -0.094494,-1.03943 0.025537,-15.02703 0,-15.52064 0,0 0.4049211,-0.92464 0.7559524,-1.11031 0.3510313,-0.18567 0.7035698,-0.2149 1.0394344,0 0.3358651,0.2149 0.5669641,1.22842 0.5669641,1.22842 0.0035,0.49274 -0.02362,15.30804 -0.02362,15.30804 0.0035,0.30891 -0.328738,0.23068 -0.6142108,0.28348 -0.2854728,0.0528 -0.7756409,-0.0358 -1.0630578,-0.0709 -0.2874169,-0.0351 -0.6614583,-0.11812 -0.6614583,-0.11812"
           id="path4551"
           inkscape:connector-curvature="0"
           sodipodi:nodetypes="cszzsszzc" />
        <path
           sodipodi:nodetypes="cc"
           inkscape:connector-curvature="0"
           id="path4610"
           d="M 8.5619515,253.9139 8.538328,237.92079"
           style="fill:none;stroke:#77bc6e;stroke-width:0.26458332px;stroke-linecap:butt;stroke-linejoin:miter;stroke-opacity:0.63829794" />
        <path
           style="fill:none;stroke:#77bc6e;stroke-width:0.26458332px;stroke-linecap:butt;stroke-linejoin:miter;stroke-opacity:0.63829794"
           d="m 9.0911182,254.10289 0.094494,-16.65457"
           id="path4608"
           inkscape:connector-curvature="0"
           sodipodi:nodetypes="cc" />
        <path
           style="fill:url(#linearGradient4575);fill-opacity:1;stroke:#216925;stroke-width:0.16500001;stroke-linecap:butt;stroke-linejoin:miter;stroke-miterlimit:4;stroke-dasharray:none;stroke-opacity:1"
           d="m 8.5078219,246.83904 c 0.2271802,0.18365 0.4528494,0.36304 0.5669642,0.70871 0.1141148,0.34567 0.090682,1.0064 -0.047247,1.27567 -0.1379291,0.26927 -0.1540926,0.2377 -0.4252232,0.33073 -0.2711306,0.093 -0.7689797,0.15987 -1.1811756,0 -0.4121959,-0.15987 -0.7764195,-0.49128 -1.0866816,-0.99219 -0.3102621,-0.50091 -0.4531285,-1.08037 -0.5669642,-1.98438 -0.1138357,-0.90401 -0.1184047,-2.66346 0.094494,-3.40178 0.2128987,-0.73832 0.3314981,-0.89037 0.6142114,-1.03944 0.2827133,-0.14907 0.4844778,-0.10929 0.7087052,0.0473 0.2242274,0.15659 0.1941034,0.0783 0.3779764,0.85045 0.183873,0.77213 -0.2370561,3.17428 0.1889879,3.82701 0.426044,0.65273 0.5287723,0.19427 0.7559525,0.37792 z"
           id="path4553"
           inkscape:connector-curvature="0"
           sodipodi:nodetypes="zzzzzzzzzzzzz" />
        <path
           sodipodi:nodetypes="cc"
           inkscape:connector-curvature="0"
           id="path4606"
           d="m 9.7525765,254.12651 0.094494,-16.65457"
           style="fill:none;stroke:#77bc6e;stroke-width:0.26458332px;stroke-linecap:butt;stroke-linejoin:miter;stroke-opacity:0.63829794" />
        <path
           style="fill:url(#linearGradient4598);fill-opacity:1;stroke:#216925;stroke-width:0.16500001;stroke-linecap:butt;stroke-linejoin:miter;stroke-miterlimit:4;stroke-dasharray:none;stroke-opacity:1"
           d="m 9.3816039,244.85033 c 0.1321095,-0.62581 1.1234891,-1.38823 1.4150371,-2.26884 0.291548,-0.88061 0.0026,-2.27498 0.236235,-2.88207 0.233594,-0.60709 0.325208,-0.66971 0.614211,-0.8032 0.289003,-0.13349 0.633065,-0.11802 0.897694,0.0472 0.264629,0.16522 0.328754,0.11521 0.47247,0.85045 0.143716,0.73524 -0.0997,2.53669 -0.236236,3.40179 -0.136536,0.86509 -0.477786,1.7361 -0.897693,2.19699 -0.447289,0.57863 -1.025111,1.05428 -1.777945,0.91039 -0.2919653,-0.0686 -0.3879233,-0.0549 -0.5595957,-0.30068 -0.1716727,-0.2458 -0.2962869,-0.52622 -0.1641774,-1.15203 z"
           id="path4555"
           inkscape:connector-curvature="0"
           sodipodi:nodetypes="zzzzzzzcczz" />
        <path
           sodipodi:nodetypes="czc"
           inkscape:connector-curvature="0"
           id="path4612"
           d="m 8.9123745,247.46211 c 0,0 -0.906478,0.37119 -1.5191962,-0.62641 -0.6127182,-0.9976 -0.2101149,-3.16374 -0.2834821,-4.84281"
           style="fill:none;stroke:#77bc6e;stroke-width:0.26458332px;stroke-linecap:butt;stroke-linejoin:miter;stroke-opacity:0.63921569" />
        <path
           style="fill:none;stroke:#77bc6e;stroke-width:0.26458332px;stroke-linecap:butt;stroke-linejoin:miter;stroke-opacity:0.63921569"
           d="m 9.0304921,248.14719 c 0,0 -1.5443128,-0.007 -2.157031,-1.00439 -0.6127182,-0.9976 -0.3754795,-3.49447 -0.4488467,-5.17354"
           id="path4614"
           inkscape:connector-curvature="0"
           sodipodi:nodetypes="czc" />
        <path
           sodipodi:nodetypes="czc"
           inkscape:connector-curvature="0"
           id="path4616"
           d="m 8.888751,248.69053 c 0,0 -1.5679363,-0.12512 -2.3223956,-1.00439 -0.7544593,-0.87927 -0.5408441,-3.09287 -0.6142113,-4.77194"
           style="fill:none;stroke:#77bc6e;stroke-width:0.26458332px;stroke-linecap:butt;stroke-linejoin:miter;stroke-opacity:0.63921569" />
        <path
           style="fill:none;stroke:#77bc6e;stroke-width:0.26458332px;stroke-linecap:butt;stroke-linejoin:miter;stroke-opacity:0.63921569"
           d="m 9.6822821,244.83363 c 0,0 1.0965359,-0.80892 1.6197129,-1.90675 0.523177,-1.09782 0.491468,-2.2617 0.418101,-3.94077"
           id="path4626"
           inkscape:connector-curvature="0"
           sodipodi:nodetypes="czc" />
        <path
           sodipodi:nodetypes="czc"
           inkscape:connector-curvature="0"
           id="path4628"
           d="m 9.6488739,245.76907 c 0,0 1.5475521,-1.22777 1.9370951,-1.7898 0.389542,-0.56204 0.80885,-3.33079 0.735483,-5.00986"
           style="fill:none;stroke:#77bc6e;stroke-width:0.26458332px;stroke-linecap:butt;stroke-linejoin:miter;stroke-opacity:0.63921569" />
        <path
           style="fill:none;stroke:#77bc6e;stroke-width:0.26458332px;stroke-linecap:butt;stroke-linejoin:miter;stroke-opacity:0.63921569"
           d="m 10.25023,246.11987 c 0,0 1.347101,-1.17767 1.736644,-1.7397 0.389542,-0.56204 0.775441,-3.43101 0.702074,-5.11008"
           id="path4630"
           inkscape:connector-curvature="0"
           sodipodi:nodetypes="czc" />
      </g>
      <g
         id="g6177"
         transform="translate(16.971615,23.720171)"
         inkscape:export-xdpi="87.908211"
         inkscape:export-ydpi="87.908211">
        <path
           inkscape:connector-curvature="0"
           id="path4648"
           d="m 3.331774,246.4766 c -0.041191,0 -0.4589916,0.1069 -0.4589916,0.1069 l 0.011768,-0.51913 -0.2883409,-0.30537 0.3059944,0.0917 -0.1588818,-0.91612 0.4589918,0.20612 -0.1706507,-0.96956 0.4884142,0.40463 0.3295325,-0.81688 0.358955,0.54967 0.5237213,-0.6031 0.3177638,0.57257 0.7473325,-0.45806 0.029422,0.79397 0.8120622,0.15268 -0.5060678,0.54968 0.2824565,0.84741 -0.5766819,0.0381 -0.082383,0.49623 -0.4354537,-0.30537 -0.5060679,0.38936 z"
           style="fill:url(#radialGradient6163);fill-opacity:1;stroke:#4f7948;stroke-width:0.09008241;stroke-linecap:butt;stroke-linejoin:miter;stroke-miterlimit:4;stroke-dasharray:none;stroke-opacity:1" />
        <path
           sodipodi:nodetypes="cccccc"
           inkscape:connector-curvature="0"
           id="path6165"
           d="m 3.725069,245.96821 0.5763,1.41152 0.016704,-1.30294 0.2672694,1.29459 0.1419871,-1.25283 0.7182866,-0.58465"
           style="fill:none;fill-opacity:1;stroke:#755151;stroke-width:0.15875;stroke-linecap:butt;stroke-linejoin:miter;stroke-miterlimit:4;stroke-dasharray:none;stroke-opacity:1" />
      </g>
      <g
         id="g6201"
         transform="matrix(0.62589576,0,0,0.62589576,23.889939,115.9181)"
         style="stroke-width:0.08454549;stroke-miterlimit:4;stroke-dasharray:none"
         inkscape:export-xdpi="87.908211"
         inkscape:export-ydpi="87.908211">
        <path
           inkscape:connector-curvature="0"
           id="path6179"
           d="m 9.5548854,246.05174 c 0,-0.20046 0.5345386,-2.2718 0.5345386,-2.2718 l 2.271791,-1.23612 1.737253,1.1359 0.367495,2.53906 -2.80633,0.53454 z"
           style="fill:url(#linearGradient6187);fill-opacity:1;stroke:#8d7139;stroke-width:0.16909099;stroke-linecap:butt;stroke-linejoin:miter;stroke-miterlimit:4;stroke-dasharray:none;stroke-opacity:1" />
        <path
           inkscape:connector-curvature="0"
           id="path6189"
           d="m 14.098468,243.67972 -2.271792,0.80181 -0.801808,1.83748 0.634765,0.43431 2.80633,-0.53454 z"
           style="fill:url(#linearGradient6197);fill-opacity:1;stroke:none;stroke-width:0.08454549;stroke-linecap:butt;stroke-linejoin:miter;stroke-miterlimit:4;stroke-dasharray:none;stroke-opacity:1" />
      </g>
    </g>
    <path
       style="fill:#eec286;fill-opacity:1;stroke:none;stroke-width:2.03819585px;stroke-linecap:butt;stroke-linejoin:miter;stroke-opacity:1"
       d="m 8.9900228,260.7219 h 0.8582904 v -2.94432 h -0.81891 z"
       id="path882"
       inkscape:connector-curvature="0" />
    <path
       style="fill:url(#linearGradient892);fill-opacity:1;stroke:none;stroke-width:2.03819585px;stroke-linecap:butt;stroke-linejoin:miter;stroke-opacity:1"
       d="m 9.3023732,242.67311 c 0,0 -1.2278862,1.25943 -1.4103574,1.86539 -0.1825006,0.60626 0.2181503,0.87356 0.090983,1.45578 -0.1271942,0.58237 -0.7794172,1.09535 -1.0009051,1.86531 -0.2214665,0.77033 -0.023,1.79165 -0.1819657,2.68426 -0.1591532,0.89258 -0.7713058,1.71485 -0.7734239,2.63872 -0.00212,0.92387 0.6564085,1.92425 0.7734239,2.68426 0.1170047,0.76033 -0.4227628,1.34377 0.045438,1.81979 0.4682114,0.47607 1.6831268,0.0808 2.1837786,0.0909 0.5006464,0.008 0.3644503,0.0618 0.8189126,0 0.4544248,-0.0615 1.5263088,-0.0615 1.8653198,-0.49995 0.339028,-0.44216 -0.113849,-0.69791 0,-1.41034 0.113849,-0.71257 1.005066,-1.88909 0.909906,-2.77522 -0.09513,-0.88614 -1.043235,-1.32292 -1.228381,-2.09279 -0.185121,-0.76956 0.206223,-1.55356 0.136501,-2.32028 -0.0701,-0.76648 -0.501724,-1.51989 -0.545942,-2.2293 -0.04391,-0.70946 0.488627,-1.23391 0.227484,-1.95626 -0.261155,-0.7226 -1.910793,-1.82025 -1.910793,-1.82025 z"
       id="path884"
       inkscape:connector-curvature="0"
       sodipodi:nodetypes="czzzzzzzzzzzzzzzzc" />
    <path
       style="fill:#2b6017;fill-opacity:1;stroke:none;stroke-width:2.03819585px;stroke-linecap:butt;stroke-linejoin:miter;stroke-opacity:1"
       d="m 8.4379558,243.674 c 0.6369201,0.95548 0.4095138,1.18294 0.4095138,1.18294 l 0.8644174,0.54619 -1.5923445,0.22732 -0.4094362,-0.72797 z"
       id="path894"
       inkscape:connector-curvature="0"
       sodipodi:nodetypes="cccccc" />
    <path
       sodipodi:nodetypes="zzzzzz"
       inkscape:connector-curvature="0"
       id="path896"
       d="m 8.4379558,243.674 c 0.31846,0.47774 0.1740437,0.88589 0.4095138,1.18294 0.2354701,0.29705 0.9561953,0.1174 0.8644174,0.54619 -0.091778,0.42879 -1.2270954,0.40752 -1.5923445,0.22732 -0.3652491,-0.1802 -0.4136853,-0.35081 -0.4094362,-0.72797 0.00425,-0.37716 0.4093895,-1.70622 0.7278495,-1.22848 z"
       style="fill:#2b6017;fill-opacity:1;stroke:none;stroke-width:2.03819585px;stroke-linecap:butt;stroke-linejoin:miter;stroke-opacity:1" />
    <path
       style="fill:#2b6017;fill-opacity:1;stroke:none;stroke-width:2.03819585px;stroke-linecap:butt;stroke-linejoin:miter;stroke-opacity:1"
       d="m 8.1195425,245.63037 c 0.3184601,0.47773 0.3463139,0.5484 0.6824464,0.77349 0.3361325,0.22509 0.017654,0.0639 1.3193721,0.45529 1.301718,0.39135 0.159055,0.94473 -0.318459,1.22838 -0.477514,0.28365 -1.6310374,0.0625 -2.0017781,-0.50073 -0.3707407,-0.5632 -4.15e-5,-2.43416 0.3184186,-1.95643 z"
       id="path898"
       inkscape:connector-curvature="0"
       sodipodi:nodetypes="zzzzzz" />
    <path
       sodipodi:nodetypes="szzzzzs"
       inkscape:connector-curvature="0"
       id="path900"
       d="m 7.1496764,247.48228 c -0.018176,0.0525 0.2251815,1.07287 0.55426,1.48044 0.3290785,0.40757 1.5096335,0.25194 1.314796,0.84375 -0.1948375,0.59181 -1.6161635,0.77426 -1.9709547,0.39199 -0.3547912,-0.38227 -0.1845371,-1.19457 -0.1918921,-1.48769 -0.00735,-0.29311 0.3529705,-1.32851 0.2935762,-1.22833 -0.059394,0.10018 2.146e-4,-1.6e-4 2.146e-4,-1.6e-4 z"
       style="fill:#2b6017;fill-opacity:1;stroke:none;stroke-width:2.03819585px;stroke-linecap:butt;stroke-linejoin:miter;stroke-opacity:1" />
    <path
       style="fill:#2b6017;fill-opacity:1;stroke:none;stroke-width:2.03819585px;stroke-linecap:butt;stroke-linejoin:miter;stroke-opacity:1"
       d="m 9.80291,248.08745 c 0.318459,0.47772 0.349982,0.84585 0.614271,1.16023 0.264289,0.31438 1.059944,0.22931 0.909911,0.70561 -0.150033,0.4763 -1.4515587,0.30684 -1.8425632,0.0909 -0.3910045,-0.21594 -1.0733043,0.51083 -1.0690781,0.13363 0.00423,-0.3772 1.0690008,-2.5681 1.3874593,-2.09037 z"
       id="path902"
       inkscape:connector-curvature="0"
       sodipodi:nodetypes="zzzzzz" />
  </g>
</svg>
